<svg xmlns="http://www.w3.org/2000/svg" width="60.305" height="67" viewBox="0 0 60.305 67">
  <g id="Groupe_16" data-name="Groupe 16" transform="translate(-1235.338 -1314.591)">
    <path id="Tracé_13" data-name="Tracé 13" d="M1430.759,1499.146l-6.334-5.265-4.285,7.034-6.6-39.594,10.62-1.77Z" transform="translate(-146.689 -119.324)" fill="#ed1c24"/>
    <path id="Tracé_14" data-name="Tracé 14" d="M1293.31,1492.068l6.842-4.586,3.54,7.437,10.63-38.706-10.382-2.851Z" transform="translate(-47.72 -114.228)" fill="#ed1c24"/>
    <path id="Tracé_15" data-name="Tracé 15" d="M1317.566,1476.447a23.417,23.417,0,0,0,9.731,5.221l6.991-25.457-10.382-2.851Z" transform="translate(-67.686 -114.228)" fill="#ed1c24" style="mix-blend-mode: multiply;isolation: isolate"/>
    <path id="Tracé_16" data-name="Tracé 16" d="M1424.163,1459.552l-10.62,1.769,4.25,25.51a23.412,23.412,0,0,0,10.029-5.317Z" transform="translate(-146.689 -119.324)" fill="#ed1c24" style="mix-blend-mode: multiply;isolation: isolate"/>
    <circle id="Ellipse_1" data-name="Ellipse 1" cx="21.321" cy="21.321" r="21.321" transform="translate(1235.338 1344.744) rotate(-45)" fill="#ffcf03"/>
    <path id="Tracé_17" data-name="Tracé 17" d="M1348.762,1397.871a21.321,21.321,0,0,1-30.144,30.144,21.321,21.321,0,1,0,30.144-30.144Z" transform="translate(-68.552 -68.552)" fill="#ffa506"/>
    <g id="Groupe_8" data-name="Groupe 8" transform="translate(1252.361 1332.139)">
      <path id="Tracé_18" data-name="Tracé 18" d="M1357.852,1426.418c0,1.362-1.2,2.518-1.6,3.747-.413,1.273-.135,2.911-.907,3.971s-2.428,1.309-3.5,2.088-1.792,2.271-3.066,2.684c-1.229.4-2.7-.371-4.058-.371s-2.829.77-4.058.371c-1.274-.414-2.005-1.912-3.065-2.684s-2.72-1.017-3.5-2.088-.493-2.7-.907-3.972c-.4-1.229-1.6-2.384-1.6-3.746s1.2-2.517,1.6-3.746c.413-1.273.135-2.911.907-3.972s2.428-1.309,3.5-2.088,1.792-2.271,3.065-2.684c1.229-.4,2.7.37,4.058.37s2.829-.77,4.058-.37c1.274.413,2.005,1.912,3.065,2.684s2.719,1.017,3.5,2.088.493,2.7.907,3.972C1356.651,1423.9,1357.852,1425.057,1357.852,1426.418Z" transform="translate(-1331.594 -1413.814)" fill="#ffec03"/>
      <path id="Tracé_19" data-name="Tracé 19" d="M1351.031,1442.29a6.645,6.645,0,0,0-3.74,0,4.169,4.169,0,0,1-1.894.149c-.928-.3-1.67-1.727-2.8-2.548s-2.724-1.1-3.289-1.878-.334-2.359-.771-3.705a8.157,8.157,0,0,0-.8-1.612c-1-1.693-1-1.989,0-3.68a8.167,8.167,0,0,0,.8-1.612c.437-1.345.214-2.94.771-3.705s2.151-1.05,3.289-1.878,1.869-2.246,2.8-2.548a4.142,4.142,0,0,1,1.894.149,6.643,6.643,0,0,0,3.741,0,4.155,4.155,0,0,1,1.894-.149c.928.3,1.67,1.726,2.8,2.548,1.144.832,2.722,1.1,3.289,1.878.557.765.334,2.359.771,3.705a8.159,8.159,0,0,0,.8,1.612c1,1.693,1,1.989,0,3.681a6.326,6.326,0,0,0-1.117,3.442c-.188,1.916-.323,2.117-2.11,2.894a8.436,8.436,0,0,0-1.633.859c-1.129.822-1.871,2.247-2.8,2.548A8.268,8.268,0,0,1,1351.031,1442.29Z" transform="translate(-1336.031 -1418.25)" fill="#ffdc01"/>
      <path id="Tracé_20" data-name="Tracé 20" d="M1368.232,1437.2a10.289,10.289,0,1,1-10.289-10.289A10.289,10.289,0,0,1,1368.232,1437.2Z" transform="translate(-1344.814 -1424.592)" fill="#ffec03"/>
    </g>
    <g id="Groupe_15" data-name="Groupe 15" transform="translate(1245.618 1329.853)">
      <g id="Groupe_9" data-name="Groupe 9" transform="translate(13.977 28.483)">
        <path id="Tracé_21" data-name="Tracé 21" d="M1378.142,1562.586a3.392,3.392,0,0,1,1.083,1.79,3.5,3.5,0,0,1-2.012-.646,3.391,3.391,0,0,1-1.083-1.79A3.5,3.5,0,0,1,1378.142,1562.586Z" transform="translate(-1375.487 -1561.94)" fill="#ffaa2e"/>
        <path id="Tracé_22" data-name="Tracé 22" d="M1374.12,1574.781a3.515,3.515,0,0,1,2.116.042,3.444,3.444,0,0,1-1.621,1.34,3.514,3.514,0,0,1-2.116-.042A3.443,3.443,0,0,1,1374.12,1574.781Z" transform="translate(-1372.499 -1572.387)" fill="#ffaa2e"/>
      </g>
      <g id="Groupe_10" data-name="Groupe 10" transform="translate(2.267 20.803)">
        <path id="Tracé_23" data-name="Tracé 23" d="M1359.785,1556.232a3.375,3.375,0,0,1,.822,1.919,3.489,3.489,0,0,1-1.9-.912,3.378,3.378,0,0,1-.822-1.92A3.491,3.491,0,0,1,1359.785,1556.232Z" transform="translate(-1348.757 -1548.811)" fill="#ffaa2e"/>
        <path id="Tracé_24" data-name="Tracé 24" d="M1353.127,1569.24a3.51,3.51,0,0,1,2.09.328,3.464,3.464,0,0,1-1.793,1.108,3.51,3.51,0,0,1-2.09-.328A3.464,3.464,0,0,1,1353.127,1569.24Z" transform="translate(-1343.367 -1560.228)" fill="#ffaa2e"/>
        <path id="Tracé_25" data-name="Tracé 25" d="M1345.693,1547.562a3.363,3.363,0,0,1,.5,2.023,3.469,3.469,0,0,1-1.733-1.2,3.363,3.363,0,0,1-.5-2.023A3.469,3.469,0,0,1,1345.693,1547.562Z" transform="translate(-1337.291 -1541.44)" fill="#ffaa2e"/>
        <path id="Tracé_26" data-name="Tracé 26" d="M1336.2,1560.889a1.126,1.126,0,1,1-1.948.814A3.5,3.5,0,0,1,1336.2,1560.889Z" transform="translate(-1329.304 -1553.394)" fill="#ffaa2e"/>
        <path id="Tracé_27" data-name="Tracé 27" d="M1332.649,1534.615a3.358,3.358,0,0,1-.011,2.083,3.431,3.431,0,0,1-1.385-1.575,3.357,3.357,0,0,1,.011-2.083A3.431,3.431,0,0,1,1332.649,1534.615Z" transform="translate(-1326.7 -1530.472)" fill="#ffaa2e"/>
        <path id="Tracé_28" data-name="Tracé 28" d="M1320,1547.2a3.464,3.464,0,0,1,1.791,1.111,3.509,3.509,0,0,1-2.091.324,3.465,3.465,0,0,1-1.791-1.111A3.511,3.511,0,0,1,1320,1547.2Z" transform="translate(-1315.854 -1542.089)" fill="#ffaa2e"/>
        <path id="Tracé_29" data-name="Tracé 29" d="M1322.472,1520.368a1.117,1.117,0,1,1-.97-1.851A3.368,3.368,0,0,1,1322.472,1520.368Z" transform="translate(-1318.379 -1518.517)" fill="#ffaa2e"/>
        <path id="Tracé_30" data-name="Tracé 30" d="M1308.4,1530.766a3.427,3.427,0,0,1,1.475,1.494,3.513,3.513,0,0,1-2.11-.168,3.427,3.427,0,0,1-1.476-1.494A3.516,3.516,0,0,1,1308.4,1530.766Z" transform="translate(-1306.287 -1528.387)" fill="#ffaa2e"/>
      </g>
      <g id="Groupe_11" data-name="Groupe 11" transform="translate(0 8.093)">
        <path id="Tracé_31" data-name="Tracé 31" d="M1313.539,1503.341a1.117,1.117,0,1,1-.577-2A3.386,3.386,0,0,1,1313.539,1503.341Z" transform="translate(-1308.761 -1491.666)" fill="#ffaa2e"/>
        <path id="Tracé_32" data-name="Tracé 32" d="M1299.423,1510.7a3.4,3.4,0,0,1,1.144,1.753,3.506,3.506,0,0,1-2.034-.578,3.4,3.4,0,0,1-1.144-1.753A3.507,3.507,0,0,1,1299.423,1510.7Z" transform="translate(-1296.695 -1498.899)" fill="#ffaa2e"/>
        <path id="Tracé_33" data-name="Tracé 33" d="M1308.787,1487.484a3.412,3.412,0,0,1-1.2,1.717,3.36,3.36,0,0,1-.247-2.069,3.413,3.413,0,0,1,1.2-1.717A3.357,3.357,0,0,1,1308.787,1487.484Z" transform="translate(-1304.826 -1478.559)" fill="#ffaa2e"/>
        <path id="Tracé_34" data-name="Tracé 34" d="M1295.382,1491.9a3.378,3.378,0,0,1,.848,1.909,3.49,3.49,0,0,1-1.915-.887,3.376,3.376,0,0,1-.848-1.909A3.49,3.49,0,0,1,1295.382,1491.9Z" transform="translate(-1293.467 -1483.168)" fill="#ffaa2e"/>
        <path id="Tracé_35" data-name="Tracé 35" d="M1307.715,1470.16a3.453,3.453,0,0,1-1.586,1.38,3.354,3.354,0,0,1,.27-2.066,3.45,3.45,0,0,1,1.586-1.38A3.355,3.355,0,0,1,1307.715,1470.16Z" transform="translate(-1303.843 -1464.302)" fill="#ffaa2e"/>
        <path id="Tracé_36" data-name="Tracé 36" d="M1296.617,1469.829a3.361,3.361,0,0,1,.351,2.054,3.456,3.456,0,0,1-1.639-1.318,3.358,3.358,0,0,1-.352-2.054A3.458,3.458,0,0,1,1296.617,1469.829Z" transform="translate(-1294.682 -1464.645)" fill="#ffaa2e"/>
        <path id="Tracé_37" data-name="Tracé 37" d="M1309.746,1453.222a3.484,3.484,0,0,1-1.871.974,3.373,3.373,0,0,1,.756-1.946,3.487,3.487,0,0,1,1.871-.974A3.371,3.371,0,0,1,1309.746,1453.222Z" transform="translate(-1305.327 -1450.458)" fill="#ffaa2e"/>
        <path id="Tracé_38" data-name="Tracé 38" d="M1301.569,1448.31a3.357,3.357,0,0,1-.149,2.078,3.419,3.419,0,0,1-1.279-1.66,3.358,3.358,0,0,1,.149-2.078A3.42,3.42,0,0,1,1301.569,1448.31Z" transform="translate(-1298.872 -1446.65)" fill="#ffaa2e"/>
      </g>
      <path id="Tracé_39" data-name="Tracé 39" d="M1315.26,1439.841a3.508,3.508,0,0,1-2.047.529,3.4,3.4,0,0,1,1.187-1.725,3.507,3.507,0,0,1,2.047-.529A3.4,3.4,0,0,1,1315.26,1439.841Z" transform="translate(-1309.721 -1431.528)" fill="#ffaa2e"/>
      <path id="Tracé_40" data-name="Tracé 40" d="M1309.815,1430.774a1.117,1.117,0,1,1-.86-1.9A3.373,3.373,0,0,1,1309.815,1430.774Z" transform="translate(-1305.696 -1423.922)" fill="#ffaa2e"/>
      <path id="Tracé_41" data-name="Tracé 41" d="M1322.906,1427.449a3.516,3.516,0,0,1-2.107.2,3.425,3.425,0,0,1,1.449-1.518,3.516,3.516,0,0,1,2.107-.2A3.423,3.423,0,0,1,1322.906,1427.449Z" transform="translate(-1315.965 -1421.438)" fill="#ffaa2e"/>
      <path id="Tracé_42" data-name="Tracé 42" d="M1319.151,1416.1a1.117,1.117,0,1,1-.543-2.013A3.392,3.392,0,0,1,1319.151,1416.1Z" transform="translate(-1313.379 -1411.752)" fill="#ffaa2e"/>
      <g id="Groupe_12" data-name="Groupe 12" transform="translate(21.485 28.338)">
        <path id="Tracé_43" data-name="Tracé 43" d="M1416.032,1561.768a3.392,3.392,0,0,0-1.083,1.79,3.5,3.5,0,0,0,2.013-.646,3.393,3.393,0,0,0,1.083-1.79A3.5,3.5,0,0,0,1416.032,1561.768Z" transform="translate(-1414.949 -1561.122)" fill="#ffaa2e"/>
        <path id="Tracé_44" data-name="Tracé 44" d="M1417.065,1573.963a3.515,3.515,0,0,0-2.116.042,3.445,3.445,0,0,0,1.621,1.34,3.516,3.516,0,0,0,2.116-.042A3.444,3.444,0,0,0,1417.065,1573.963Z" transform="translate(-1414.949 -1571.569)" fill="#ffaa2e"/>
      </g>
      <g id="Groupe_13" data-name="Groupe 13" transform="translate(24.659 20.593)">
        <path id="Tracé_45" data-name="Tracé 45" d="M1433.722,1556.232a3.375,3.375,0,0,0-.822,1.919,3.489,3.489,0,0,0,1.9-.912,3.376,3.376,0,0,0,.822-1.92A3.492,3.492,0,0,0,1433.722,1556.232Z" transform="translate(-1432.9 -1548.601)" fill="#ffaa2e"/>
        <path id="Tracé_46" data-name="Tracé 46" d="M1434.99,1569.24a3.51,3.51,0,0,0-2.09.328,3.465,3.465,0,0,0,1.793,1.108,3.51,3.51,0,0,0,2.09-.328A3.465,3.465,0,0,0,1434.99,1569.24Z" transform="translate(-1432.9 -1560.018)" fill="#ffaa2e"/>
        <path id="Tracé_47" data-name="Tracé 47" d="M1449.993,1546.946a3.363,3.363,0,0,0-.5,2.023,3.468,3.468,0,0,0,1.733-1.2,3.362,3.362,0,0,0,.5-2.023A3.467,3.467,0,0,0,1449.993,1546.946Z" transform="translate(-1446.549 -1540.723)" fill="#ffaa2e"/>
        <path id="Tracé_48" data-name="Tracé 48" d="M1451.54,1560.273a1.126,1.126,0,1,0,1.948.814A3.5,3.5,0,0,0,1451.54,1560.273Z" transform="translate(-1446.588 -1552.677)" fill="#ffaa2e"/>
        <path id="Tracé_49" data-name="Tracé 49" d="M1465,1534.293a3.355,3.355,0,0,0,.011,2.083,3.428,3.428,0,0,0,1.385-1.575,3.354,3.354,0,0,0-.011-2.083A3.428,3.428,0,0,0,1465,1534.293Z" transform="translate(-1459.185 -1529.997)" fill="#ffaa2e"/>
        <path id="Tracé_50" data-name="Tracé 50" d="M1467.624,1546.882a3.464,3.464,0,0,0-1.791,1.111,3.51,3.51,0,0,0,2.091.325,3.464,3.464,0,0,0,1.791-1.111A3.512,3.512,0,0,0,1467.624,1546.882Z" transform="translate(-1460.009 -1541.614)" fill="#ffaa2e"/>
        <path id="Tracé_51" data-name="Tracé 51" d="M1476.753,1519.181a1.117,1.117,0,1,0,.97-1.851A3.367,3.367,0,0,0,1476.753,1519.181Z" transform="translate(-1468.983 -1517.33)" fill="#ffaa2e"/>
        <path id="Tracé_52" data-name="Tracé 52" d="M1481.182,1529.579a3.426,3.426,0,0,0-1.475,1.494,3.514,3.514,0,0,0,2.11-.168,3.426,3.426,0,0,0,1.475-1.494A3.516,3.516,0,0,0,1481.182,1529.579Z" transform="translate(-1471.428 -1527.2)" fill="#ffaa2e"/>
      </g>
      <g id="Groupe_14" data-name="Groupe 14" transform="translate(33.394 8.135)">
        <path id="Tracé_53" data-name="Tracé 53" d="M1484.726,1503.038a1.117,1.117,0,1,0,.577-2A3.389,3.389,0,0,0,1484.726,1503.038Z" transform="translate(-1484.289 -1491.458)" fill="#ffaa2e"/>
        <path id="Tracé_54" data-name="Tracé 54" d="M1491.038,1510.4a3.4,3.4,0,0,0-1.144,1.752,3.505,3.505,0,0,0,2.034-.578,3.4,3.4,0,0,0,1.144-1.753A3.506,3.506,0,0,0,1491.038,1510.4Z" transform="translate(-1488.549 -1498.692)" fill="#ffaa2e"/>
        <path id="Tracé_55" data-name="Tracé 55" d="M1489.036,1487.154a3.412,3.412,0,0,0,1.2,1.717,3.362,3.362,0,0,0,.247-2.069,3.414,3.414,0,0,0-1.2-1.717A3.36,3.36,0,0,0,1489.036,1487.154Z" transform="translate(-1487.781 -1478.33)" fill="#ffaa2e"/>
        <path id="Tracé_56" data-name="Tracé 56" d="M1497.009,1491.572a3.378,3.378,0,0,0-.848,1.909,3.49,3.49,0,0,0,1.915-.887,3.377,3.377,0,0,0,.848-1.908A3.491,3.491,0,0,0,1497.009,1491.572Z" transform="translate(-1493.708 -1482.939)" fill="#ffaa2e"/>
        <path id="Tracé_57" data-name="Tracé 57" d="M1488.281,1470.408a3.448,3.448,0,0,0,1.586,1.38,3.357,3.357,0,0,0-.27-2.066,3.45,3.45,0,0,0-1.586-1.38A3.356,3.356,0,0,0,1488.281,1470.408Z" transform="translate(-1486.952 -1464.548)" fill="#ffaa2e"/>
        <path id="Tracé_58" data-name="Tracé 58" d="M1498.962,1470.076a3.357,3.357,0,0,0-.352,2.054,3.457,3.457,0,0,0,1.639-1.318,3.36,3.36,0,0,0,.352-2.054A3.456,3.456,0,0,0,1498.962,1470.076Z" transform="translate(-1495.696 -1464.89)" fill="#ffaa2e"/>
        <path id="Tracé_59" data-name="Tracé 59" d="M1483.048,1453.46a3.486,3.486,0,0,0,1.871.974,3.372,3.372,0,0,0-.756-1.946,3.486,3.486,0,0,0-1.871-.974A3.372,3.372,0,0,0,1483.048,1453.46Z" transform="translate(-1482.292 -1450.696)" fill="#ffaa2e"/>
        <path id="Tracé_60" data-name="Tracé 60" d="M1495.8,1448.548a3.357,3.357,0,0,0,.149,2.078,3.419,3.419,0,0,0,1.278-1.66,3.356,3.356,0,0,0-.149-2.078A3.421,3.421,0,0,0,1495.8,1448.548Z" transform="translate(-1493.322 -1446.888)" fill="#ffaa2e"/>
      </g>
      <path id="Tracé_61" data-name="Tracé 61" d="M1474.888,1440.322a3.506,3.506,0,0,0,2.047.529,3.4,3.4,0,0,0-1.187-1.725,3.509,3.509,0,0,0-2.047-.529A3.4,3.4,0,0,0,1474.888,1440.322Z" transform="translate(-1441.826 -1431.924)" fill="#ffaa2e"/>
      <path id="Tracé_62" data-name="Tracé 62" d="M1488.428,1431.255a1.117,1.117,0,1,0,.861-1.9A3.375,3.375,0,0,0,1488.428,1431.255Z" transform="translate(-1453.945 -1424.318)" fill="#ffaa2e"/>
      <path id="Tracé_63" data-name="Tracé 63" d="M1465.283,1428.028a3.515,3.515,0,0,0,2.107.2,3.424,3.424,0,0,0-1.449-1.518,3.515,3.515,0,0,0-2.107-.2A3.426,3.426,0,0,0,1465.283,1428.028Z" transform="translate(-1433.704 -1421.914)" fill="#ffaa2e"/>
      <path id="Tracé_64" data-name="Tracé 64" d="M1478.578,1416.677a1.117,1.117,0,1,0,.544-2.013A3.392,3.392,0,0,0,1478.578,1416.677Z" transform="translate(-1445.83 -1412.228)" fill="#ffaa2e"/>
      <path id="Tracé_65" data-name="Tracé 65" d="M1334.11,1416.877a1.379,1.379,0,0,1-.154.137c-.017.013-.035.022-.052.033a15.542,15.542,0,0,1,5.593,11.848c0,8.8-7.578,15.954-16.894,15.954s-16.894-7.157-16.894-15.954a15.494,15.494,0,0,1,5.144-11.452,1.7,1.7,0,0,1-.272-.107,15.734,15.734,0,0,0-5.144,11.559c0,8.938,7.7,16.21,17.166,16.21s17.166-7.272,17.166-16.21A15.791,15.791,0,0,0,1334.11,1416.877Z" transform="translate(-1303.321 -1414.049)" fill="#ff9912"/>
      <path id="Tracé_66" data-name="Tracé 66" d="M1335.821,1416.438a3.511,3.511,0,0,1-2.094-.306,3.463,3.463,0,0,1,1.78-1.127,3.51,3.51,0,0,1,2.094.306A3.463,3.463,0,0,1,1335.821,1416.438Z" transform="translate(-1326.607 -1412.463)" fill="#ffaa2e"/>
      <path id="Tracé_67" data-name="Tracé 67" d="M1334.224,1402.97a3.428,3.428,0,0,1-1.371,1.587,3.355,3.355,0,0,1-.031-2.083,3.428,3.428,0,0,1,1.371-1.587A3.358,3.358,0,0,1,1334.224,1402.97Z" transform="translate(-1325.734 -1400.887)" fill="#ffaa2e"/>
      <path id="Tracé_68" data-name="Tracé 68" d="M1451.547,1416.438a3.512,3.512,0,0,0,2.094-.306,3.465,3.465,0,0,0-1.78-1.127,3.51,3.51,0,0,0-2.094.306A3.462,3.462,0,0,0,1451.547,1416.438Z" transform="translate(-1422.125 -1412.463)" fill="#ffaa2e"/>
      <path id="Tracé_69" data-name="Tracé 69" d="M1463.192,1402.97a3.427,3.427,0,0,0,1.371,1.587,3.355,3.355,0,0,0,.031-2.083,3.428,3.428,0,0,0-1.37-1.587A3.356,3.356,0,0,0,1463.192,1402.97Z" transform="translate(-1433.046 -1400.887)" fill="#ffaa2e"/>
    </g>
    <path id="Tracé_70" data-name="Tracé 70" d="M1364.672,1384.528l-1.46-.419-1.334.728-.052-1.519-1.1-1.043,1.428-.519.651-1.373.935,1.2,1.507.195-.85,1.26Z" transform="translate(-103.208 -54.156)" fill="#ffec03"/>
    <path id="Tracé_71" data-name="Tracé 71" d="M1429.649,1387.475l1.256.855.2-1.506,1.2-.93-1.37-.656-.514-1.43-1.048,1.1-1.519.047.723,1.337-.425,1.459Z" transform="translate(-158.471 -56.974)" fill="#ffec03"/>
    <path id="Tracé_72" data-name="Tracé 72" d="M1397.34,1382.241l-1.38-.638-1.429.516.18-1.509-.932-1.2,1.491-.3.853-1.258.741,1.327,1.46.423-1.033,1.115Z" transform="translate(-130.42 -52.078)" fill="#ffec03"/>
  </g>
</svg>
